<svg height="512pt" viewBox="-32 0 512 512" width="512pt" xmlns="http://www.w3.org/2000/svg"><path d="m446.699219 321.398438-12.898438-89.097657c8.699219-28.203125 13.199219-56.402343 13.199219-81.300781 0-91.199219-63.597656-151-162-151-21.300781 0-41.398438 2.699219-60 8.402344h-.300781c-18.300781-5.703125-38.398438-8.402344-59.699219-8.402344-100.199219 0-165 59.800781-165 151 0 33.601562 8.402344 72.300781 23.699219 109.5l-14.699219 51.601562c-6.300781 22.199219-6.601562 45.296876-.300781 70.199219 14.402343 58.199219 66.300781 99.699219 126.300781 99.699219 8.402344 0 15-6.601562 15-15v-10.199219c18.902344 22.199219 42.003906 40.5 68.402344 53.699219 2.097656.898438 4.199218 1.5 6.597656 1.5 2.402344 0 4.503906-.601562 6.601562-1.5 26.398438-13.199219 49.5-31.5 68.398438-53.699219v10.199219c0 8.398438 6.601562 15 15 15 60 0 111.898438-41.5 126.300781-99.699219l2.699219-10.800781c4.199219-16.5 5.101562-33.300781 2.699219-50.101562zm0 0" fill="#ff641a"/><path d="m444 371.5-2.699219 10.800781c-14.402343 58.199219-66.300781 99.699219-126.300781 99.699219-8.398438 0-15-6.601562-15-15v-10.199219c-18.898438 22.199219-42 40.5-68.398438 53.699219-2.097656.898438-4.199218 1.5-6.601562 1.5v-503.597656c18.601562-5.703125 38.699219-8.402344 60-8.402344 98.402344 0 162.003906 59.800781 162.003906 151 0 24.898438-4.503906 53.097656-13.203125 81.300781l12.902344 89.097657c2.398437 16.800781 1.496094 33.601562-2.703125 50.101562zm0 0" fill="#f03800"/><path d="m159.917969 105.503906c-20.171875-26.019531-68.9375-15.75-78.515625-13.40625-4.144532 1.011719-7.675782 3.738282-9.683594 7.5-4.644531 8.703125-26.808594 53.394532-6.648438 79.394532 10.296876 13.304687 25.824219 21.710937 42.609376 23.074218l64.703124-63.515625c-.730468-12.042969-5.039062-23.484375-12.464843-33.046875zm0 0" fill="#ffbd86"/><path d="m376.304688 99.613281c-2.007813-3.777343-5.539063-6.503906-9.683594-7.515625-9.640625-2.34375-58.402344-12.613281-78.53125 13.390625-7.234375 9.328125-11.527344 20.476563-12.421875 32.253907l67.222656 64.042968c15.96875-1.976562 30.191406-10.0625 40.050781-22.792968 20.15625-26-1.992187-70.691407-6.636718-79.378907zm0 0" fill="#f6a96c"/><path d="m270 376c0 24.898438-20.097656 45-45 45-24.898438 0-45-20.101562-45-45l45-45zm0 0" fill="#ffbd86"/><path d="m270 376c0 24.898438-20.097656 45-45 45v-90zm0 0" fill="#f6a96c"/><path d="m330 278.199219v52.800781c0 33-27 60-60 60-11.097656 0-21-3.300781-30-8.402344l-15-21.597656-15 21.597656c-9 5.101563-18.898438 8.402344-30 8.402344-32.996094 0-60-27-60-60v-52.800781c-25.800781-23.101563-36-58.800781-26.398438-93 8.101563-29.097657 31.199219-52.199219 60-60.296875 24.597657-7.203125 50.097657-4.203125 71.398438 8.097656 21.300781-12.300781 46.800781-15.296875 71.402344-8.097656 28.800781 8.097656 51.898437 31.199218 60 60.296875 9.597656 34.199219-.601563 69.898437-26.402344 93zm0 0" fill="#fed2a4"/><path d="m330 278.199219v52.800781c0 33-27 60-60 60-11.097656 0-21-3.300781-30-8.402344l-15-21.597656v-228c21.300781-12.300781 46.800781-15.300781 71.402344-8.101562 28.800781 8.101562 51.898437 31.199218 60 60.300781 9.597656 34.199219-.601563 69.898437-26.402344 93zm0 0" fill="#ffbd86"/><path d="m195 271c-8.289062 0-15-6.710938-15-15 0-8.277344-6.722656-15-15-15-8.289062 0-15-6.710938-15-15s6.710938-15 15-15c24.816406 0 45 20.1875 45 45 0 8.289062-6.707031 15-15 15zm0 0" fill="#895d3c"/><path d="m255 271c-8.289062 0-15-6.710938-15-15 0-24.8125 20.1875-45 45-45 8.292969 0 15 6.710938 15 15s-6.707031 15-15 15c-8.273438 0-15 6.722656-15 15 0 8.289062-6.707031 15-15 15zm0 0" fill="#714c2f"/><path d="m270 316c0 8.398438-6.597656 15-15 15h-15v51.597656c-5.699219-3.296875-10.800781-7.199218-15-11.996094-4.199219 4.796876-9.300781 8.699219-15 11.996094v-51.597656h-15c-8.398438 0-15-6.601562-15-15 0-8.402344 6.601562-15 15-15h60c8.402344 0 15 6.597656 15 15zm0 0" fill="#895d3c"/><path d="m270 316c0 8.398438-6.597656 15-15 15h-15v51.597656c-5.699219-3.296875-10.800781-7.199218-15-11.996094v-69.601562h30c8.402344 0 15 6.597656 15 15zm0 0" fill="#714c2f"/></svg>