<svg height="479pt" viewBox="0 -47 479.96998 479" width="479pt" xmlns="http://www.w3.org/2000/svg"><g fill="#333"><path d="m479.585938 347.046875c-1.128907 3.234375-4.171876 5.414063-7.601563 5.4375h-88c-1.730469.011719-3.417969-.550781-4.800781-1.597656l-64-48c-2.753906-2.066407-3.875-5.664063-2.789063-8.929688 1.089844-3.269531 4.148438-5.472656 7.589844-5.472656h88c1.734375-.007813 3.421875.554687 4.800781 1.601563l64 48c2.722656 2.101562 3.84375 5.679687 2.800782 8.960937zm0 0"/><path d="m103.984375 56.484375v56c.019531 2.726563-1.371094 5.269531-3.679687 6.71875-1.277344.855469-2.785157 1.300781-4.320313 1.28125-1.132813 0-2.25-.246094-3.277344-.71875l-88-40c-3.203125-1.417969-5.089843-4.769531-4.6406248-8.242187.3710938-3.484376 3.0195318-6.296876 6.4804688-6.878907l88-16c2.328125-.464843 4.742187.152344 6.558594 1.679688 1.835937 1.519531 2.890625 3.78125 2.878906 6.160156zm0 0"/><path d="m175.984375 288.484375h-16v80h-16v16h48v-16h-16zm0 0"/><path d="m239.984375 368.484375v-80h-16v80h-16v16h48v-16zm0 0"/></g><path d="m455.585938 298.886719c-1.015626 3.339843-4.109376 5.617187-7.601563 5.597656h-280c-44.152344-.070313-79.929687-35.847656-80-80v-156c0-37.554687 30.445313-68 68-68s68 30.445313 68 68v41.359375c-.066406 13.808594 7.054687 26.660156 18.800781 33.921875l209.761719 146.160156c2.859375 2.003907 4.089844 5.628907 3.039063 8.960938zm0 0"/><path d="m351.34375 267.605469c-1.25 2.957031-4.148438 4.875-7.359375 4.878906-.535156-.007813-1.070313-.0625-1.597656-.160156l-169.601563-35.359375c-7.664062-1.613282-14.058594-6.859375-17.132812-14.0625-3.074219-7.199219-2.441406-15.449219 1.691406-22.097656l19.042969-30.398438c3.429687-5.582031 9.019531-9.492188 15.4375-10.800781 6.40625-1.34375 13.082031-.015625 18.480469 3.679687l138.160156 94.558594c3.1875 2.132812 4.398437 6.238281 2.878906 9.761719zm0 0" fill="#1a1a1a"/><path d="m143.984375 56.484375c0 8.835937-7.164063 16-16 16s-16-7.164063-16-16 7.164063-16 16-16 16 7.164063 16 16zm0 0" fill="#ffcc5c"/></svg>